<?xml version="1.0" encoding="UTF-8"?>
<svg id="Layer_2" data-name="Layer 2" xmlns="http://www.w3.org/2000/svg" viewBox="0 0 347.66 253.99">
  <defs>
    <style>
      .cls-1, .cls-2, .cls-3 {
        fill: #ea9123;
      }

      .cls-4, .cls-5 {
        fill: #90361f;
      }

      .cls-6, .cls-7, .cls-8, .cls-9, .cls-10, .cls-2, .cls-3, .cls-5 {
        stroke: #fff;
      }

      .cls-6, .cls-7, .cls-8, .cls-9, .cls-3, .cls-5 {
        stroke-linejoin: round;
        stroke-width: 20px;
      }

      .cls-6, .cls-11 {
        fill: #532322;
      }

      .cls-7, .cls-12 {
        fill: #f6d365;
      }

      .cls-8, .cls-13 {
        fill: #e39331;
      }

      .cls-14, .cls-9, .cls-10 {
        fill: #cc5628;
      }

      .cls-10, .cls-2 {
        stroke-width: 5px;
      }
    </style>
  </defs>
  <g id="a">
    <path class="cls-3" d="M134.85,10.01c-3.68,5.31-8.67,13.93-11.54,25.53-2.22,8.99-2.44,16.84-2.15,22.52,5.97-1.51,12.55-2.89,19.68-4,7.76-1.2,15-1.89,21.6-2.24-1.54-5.64-4.29-13.29-9.38-21.42-6.12-9.79-13.18-16.38-18.21-20.38h0Z"/>
    <path class="cls-3" d="M272.03,28.74c-5.53,2.3-13.42,6.32-21.43,13.26-8.15,7.06-13.3,14.43-16.36,19.63,6.06,2.04,12.61,4.55,19.51,7.64,6.86,3.08,13.06,6.29,18.6,9.43,1.91-5.62,4.17-14.39,4.06-25.27-.1-10.62-2.41-19.16-4.37-24.69h-.01Z"/>
    <path class="cls-8" d="M120,65.85c-1.81,9.14-3.28,20.48-3.28,33.52,0,13.9,1.68,25.91,3.68,35.43,9.69-17.73,20.54-28.32,29.07-34.85,7.79-5.96,16.19-10.48,20.49-20.77,3.3-7.9,2.74-15.78,1.66-21.4-6.72.02-14.29.44-22.5,1.54-11.19,1.51-20.97,3.94-29.12,6.53Z"/>
    <path class="cls-7" d="M178.38,57.83c.69,3.63,1.37,9.59,0,16.69-.53,2.71-1.75,8.69-5.83,14.82-5.15,7.75-9.83,8.17-21.51,19.19-3,2.83-5.31,5.26-6.73,6.81,14.47,9.18,28.93,18.37,43.4,27.55,7.77-3.17,43.51-18.68,52.96-53.36,1.37-5,2.37-11.1,2.27-18.22-9.35-3.79-21.02-7.63-34.72-10.25-11.1-2.12-21.18-3-29.83-3.24h0Z"/>
    <path class="cls-3" d="M271.94,85.67c.09,5.18-.12,10.75-.76,16.65-2.36,21.71-9.68,39.17-16.41,51.45.08-1.02.78-12.93-8.93-20.74-9.27-7.45-20.12-4.83-21.28-4.52,4.65-4.26,10.83-10.93,15.97-20.41,7.52-13.86,9.08-26.82,9.4-34.16,7.34,3.91,14.67,7.82,22.01,11.73h0Z"/>
    <path class="cls-7" d="M121.43,142.13c8.7,20.47,17.4,40.94,26.1,61.42,6.69,3.38,17.01,7.64,30.24,9.53,13.96,1.99,25.61.56,33.14-.96,13.79-17.49,27.58-34.97,41.36-52.46-3.98.66-9.19,1.32-15.3,1.58-5.16.22-11.45.16-19.62-.7-16.25-1.71-16.86-4.18-31.96-6.22-13.6-1.83-13.86.07-29.27-2.25-9.18-1.38-16.03-3.1-22.12-5.09-5.15-1.68-9.41-3.44-12.57-4.85h0Z"/>
    <path class="cls-6" d="M179.78,149.66c-3.65-3-8.63-6.94-14.75-11.35-3.28-2.36-5.86-4.12-8.69-6.04-4.17-2.83-9.62-6.46-16.14-10.6-1.14,1.81-3.09,5.43-3.57,10.41-.42,4.37.48,7.87,1.14,9.84,5.33.34,11.09.94,17.21,1.92,9.28,1.49,17.58,3.58,24.79,5.82h.01Z"/>
    <path class="cls-6" d="M192.95,151.46c7.9-3.5,16.53-6.96,25.87-10.19,6.73-2.33,13.22-4.33,19.44-6.06.62,2.05,1.61,6.29.52,11.46-.85,4.03-2.62,6.95-3.8,8.6-5.24-1.14-11-2.13-17.25-2.83-9.13-1.02-17.47-1.22-24.78-.98h0Z"/>
    <path class="cls-6" d="M154.72,214.53c5.87,2.15,13.48,4.36,22.52,5.58,9.15,1.24,17.15,1.12,23.43.59-8.9,7.76-17.79,15.52-26.69,23.29-6.42-9.82-12.84-19.64-19.26-29.46h0Z"/>
    <path class="cls-6" d="M192.78,151.47c4.32-1.9,10.18-4.36,17.26-6.96,3.79-1.39,6.76-2.39,9.99-3.48,4.77-1.61,11-3.63,18.4-5.85.61,2.05,1.51,6.06.63,10.99-.78,4.32-2.58,7.45-3.75,9.17-5.22-1.11-10.94-2.09-17.09-2.79-9.34-1.06-17.89-1.29-25.44-1.08h0Z"/>
    <path class="cls-9" d="M120.4,134.81c-2.83-14.86-4.53-32.99-2.67-53.4.5-5.49,1.22-10.72,2.1-15.66,7.96-2.46,17.42-4.78,28.19-6.27,8.64-1.2,16.58-1.65,23.6-1.69-1.75,2.95-4.71,7.46-9.2,12.19-12.98,13.69-24.51,14.27-32.83,22.26-6.18,5.94-12.19,17.52-9.19,42.57h0Z"/>
    <path class="cls-9" d="M226.74,115.5c-6.46-2.17-17.39-6.81-27.58-16.82-15.85-15.56-19.71-34.03-20.78-40.84,9,.24,19.67,1.19,31.49,3.56,13.01,2.61,24.12,6.3,33.06,9.92.06,4.84-.39,11.17-2.33,18.27-3.4,12.4-9.7,21.07-13.85,25.9h0Z"/>
    <path class="cls-9" d="M249.93,73.94c7.34,3.91,14.67,7.82,22.01,11.73.11,7.82-.43,17.24-2.45,27.71-3.34,17.29-9.48,30.94-14.71,40.39,1.62-3.32,14.28-30.2.98-51.08-1.91-2.99-4.73-6.46-8.97-9.74.61-2.06,1.17-4.29,1.65-6.68.91-4.51,1.34-8.66,1.5-12.33h0Z"/>
    <path class="cls-9" d="M234.24,61.63c2.96-5.02,7.66-11.72,14.81-18.24,8.53-7.79,17.11-12.19,22.99-14.64,1.86,5.26,3.81,12.6,4.27,21.5.63,12.3-1.86,22.25-3.96,28.46-.01-8.68-4.79-16.63-12.36-20.51-8.31-4.26-18.57-2.91-25.74,3.44h-.01Z"/>
    <path class="cls-9" d="M121.16,58.05c-.29-5.75-.07-13.86,2.32-23.17,2.9-11.29,7.78-19.68,11.38-24.88,4.49,3.57,10.17,8.86,15.46,16.26,6.96,9.74,10.38,19.15,12.13,25.54-5.18-8.55-15.13-12.85-24.48-10.7-8.23,1.89-14.76,8.48-16.81,16.94h0Z"/>
    <path class="cls-3" d="M147.53,203.54c-8.7-20.47-17.4-40.94-26.1-61.42,4.42,10.53,10.18,16.7,14.35,20.27,25.91,22.2,68.94,11.27,91.27,5.57,11.26-2.87,20.06-6.19,25.17-8.27-13.77,17.47-27.54,34.94-41.31,52.42-7.38,1.49-18.65,2.88-32.16,1.09-13.77-1.82-24.44-6.23-31.22-9.66h0Z"/>
    <path class="cls-3" d="M178.38,57.84c.81,3.94,1.64,10.69-.3,18.63-.65,2.64-1.98,8.71-6.68,14.48-3.68,4.52-6.31,5.83-12.71,10.95-3.69,2.96-8.78,7.36-14.39,13.45,5.37,2.73,11.72,5.35,19.01,7.31,24.71,6.66,46.33,2.08,58.17-1.52,1.76-1.88,3.51-3.77,5.27-5.65-10.11-7.02-23.39-18.12-35.16-34.72-5.76-8.12-10.02-15.98-13.2-22.94h0Z"/>
    <path class="cls-5" d="M134.96,10.02c-2.01,2.77-4.12,6.1-6.08,10.03-3.18,6.36-4.94,12.28-5.96,17,.4-1.39,2.52-8.25,8.95-11.24,7.33-3.4,17.36-.41,23.36,7.98-2.84-4.92-6.8-10.68-12.3-16.44-2.71-2.84-5.41-5.27-7.96-7.34h0Z"/>
    <path class="cls-5" d="M272.03,28.74c1.24,3.16,2.45,6.96,3.3,11.33,1.4,7.2,1.37,13.5.95,18.26.02-1.25.02-8.97-5.73-13.79-6.19-5.19-16.55-4.94-24.34,1.52,3.76-3.78,8.85-8.14,15.45-12.1,3.67-2.2,7.18-3.9,10.36-5.22h.01Z"/>
    <path class="cls-9" d="M210.91,212.12c10.33-13.11,20.67-26.23,31-39.34-8.78,7.87-26.48,21.54-52.65,27.97-16.97,4.17-31.69,3.86-41.73,2.8,7.2,3.63,18.74,8.33,33.62,9.93,12.25,1.32,22.57.08,29.76-1.36Z"/>
    <path class="cls-1" d="M133.85,10.01c-3.68,5.31-8.67,13.93-11.54,25.53-2.22,8.99-2.44,16.84-2.15,22.52,5.97-1.51,12.55-2.89,19.68-4,7.76-1.2,15-1.89,21.6-2.24-1.54-5.64-4.29-13.29-9.38-21.42-6.12-9.79-13.18-16.38-18.21-20.38h0Z"/>
    <path class="cls-1" d="M271.03,28.74c-5.53,2.3-13.42,6.32-21.43,13.26-8.15,7.06-13.3,14.43-16.36,19.63,6.06,2.04,12.61,4.55,19.51,7.64,6.86,3.08,13.06,6.29,18.6,9.43,1.91-5.62,4.17-14.39,4.06-25.27-.1-10.62-2.41-19.16-4.37-24.69h-.01Z"/>
    <path class="cls-13" d="M119,65.85c-1.81,9.14-3.28,20.48-3.28,33.52,0,13.9,1.68,25.91,3.68,35.43,9.69-17.73,20.54-28.32,29.07-34.85,7.79-5.96,16.19-10.48,20.49-20.77,3.3-7.9,2.74-15.78,1.66-21.4-6.72.02-14.29.44-22.5,1.54-11.19,1.51-20.97,3.94-29.12,6.53Z"/>
    <path class="cls-12" d="M177.38,57.83c.69,3.63,1.37,9.59,0,16.69-.53,2.71-1.75,8.69-5.83,14.82-5.15,7.75-9.83,8.17-21.51,19.19-3,2.83-5.31,5.26-6.73,6.81,14.47,9.18,28.93,18.37,43.4,27.55,7.77-3.17,43.51-18.68,52.96-53.36,1.37-5,2.37-11.1,2.27-18.22-9.35-3.79-21.02-7.63-34.72-10.25-11.1-2.12-21.18-3-29.83-3.24h0Z"/>
    <path class="cls-1" d="M270.94,85.67c.09,5.18-.12,10.75-.76,16.65-2.36,21.71-9.68,39.17-16.41,51.45.08-1.02.78-12.93-8.93-20.74-9.27-7.45-20.12-4.83-21.28-4.52,4.65-4.26,10.83-10.93,15.97-20.41,7.52-13.86,9.08-26.82,9.4-34.16,7.34,3.91,14.67,7.82,22.01,11.73h0Z"/>
    <path class="cls-12" d="M120.43,142.13c8.7,20.47,17.4,40.94,26.1,61.42,6.69,3.38,17.01,7.64,30.24,9.53,13.96,1.99,25.61.56,33.14-.96,13.79-17.49,27.58-34.97,41.36-52.46-3.98.66-9.19,1.32-15.3,1.58-5.16.22-11.45.16-19.62-.7-16.25-1.71-16.86-4.18-31.96-6.22-13.6-1.83-13.86.07-29.27-2.25-9.18-1.38-16.03-3.1-22.12-5.09-5.15-1.68-9.41-3.44-12.57-4.85h0Z"/>
    <path class="cls-11" d="M178.78,149.66c-3.65-3-8.63-6.94-14.75-11.35-3.28-2.36-5.86-4.12-8.69-6.04-4.17-2.83-9.62-6.46-16.14-10.6-1.14,1.81-3.09,5.43-3.57,10.41-.42,4.37.48,7.87,1.14,9.84,5.33.34,11.09.94,17.21,1.92,9.28,1.49,17.58,3.58,24.79,5.82h.01Z"/>
    <path class="cls-11" d="M191.95,151.46c7.9-3.5,16.53-6.96,25.87-10.19,6.73-2.33,13.22-4.33,19.44-6.06.62,2.05,1.61,6.29.52,11.46-.85,4.03-2.62,6.95-3.8,8.6-5.24-1.14-11-2.13-17.25-2.83-9.13-1.02-17.47-1.22-24.78-.98h0Z"/>
    <path class="cls-11" d="M153.72,214.53c5.87,2.15,13.48,4.36,22.52,5.58,9.15,1.24,17.15,1.12,23.43.59-8.9,7.76-17.79,15.52-26.69,23.29-6.42-9.82-12.84-19.64-19.26-29.46h0Z"/>
    <path class="cls-11" d="M191.78,151.47c4.32-1.9,10.18-4.36,17.26-6.96,3.79-1.39,6.76-2.39,9.99-3.48,4.77-1.61,11-3.63,18.4-5.85.61,2.05,1.51,6.06.63,10.99-.78,4.32-2.58,7.45-3.75,9.17-5.22-1.11-10.94-2.09-17.09-2.79-9.34-1.06-17.89-1.29-25.44-1.08h0Z"/>
    <path class="cls-14" d="M119.4,134.81c-2.83-14.86-4.53-32.99-2.67-53.4.5-5.49,1.22-10.72,2.1-15.66,7.96-2.46,17.42-4.78,28.19-6.27,8.64-1.2,16.58-1.65,23.6-1.69-1.75,2.95-4.71,7.46-9.2,12.19-12.98,13.69-24.51,14.27-32.83,22.26-6.18,5.94-12.19,17.52-9.19,42.57h0Z"/>
    <path class="cls-14" d="M225.74,115.5c-6.46-2.17-17.39-6.81-27.58-16.82-15.85-15.56-19.71-34.03-20.78-40.84,9,.24,19.67,1.19,31.49,3.56,13.01,2.61,24.12,6.3,33.06,9.92.06,4.84-.39,11.17-2.33,18.27-3.4,12.4-9.7,21.07-13.85,25.9h0Z"/>
    <path class="cls-14" d="M248.93,73.94c7.34,3.91,14.67,7.82,22.01,11.73.11,7.82-.43,17.24-2.45,27.71-3.34,17.29-9.48,30.94-14.71,40.39,1.62-3.32,14.28-30.2.98-51.08-1.91-2.99-4.73-6.46-8.97-9.74.61-2.06,1.17-4.29,1.65-6.68.91-4.51,1.34-8.66,1.5-12.33h0Z"/>
    <path class="cls-14" d="M233.24,61.63c2.96-5.02,7.66-11.72,14.81-18.24,8.53-7.79,17.11-12.19,22.99-14.64,1.86,5.26,3.81,12.6,4.27,21.5.63,12.3-1.86,22.25-3.96,28.46-.01-8.68-4.79-16.63-12.36-20.51-8.31-4.26-18.57-2.91-25.74,3.44h-.01Z"/>
    <path class="cls-14" d="M120.16,58.05c-.29-5.75-.07-13.86,2.32-23.17,2.9-11.29,7.78-19.68,11.38-24.88,4.49,3.57,10.17,8.86,15.46,16.26,6.96,9.74,10.38,19.15,12.13,25.54-5.18-8.55-15.13-12.85-24.48-10.7-8.23,1.89-14.76,8.48-16.81,16.94h0Z"/>
    <path class="cls-1" d="M146.53,203.54c-8.7-20.47-17.4-40.94-26.1-61.42,4.42,10.53,10.18,16.7,14.35,20.27,25.91,22.2,68.94,11.27,91.27,5.57,11.26-2.87,20.06-6.19,25.17-8.27-13.77,17.47-27.54,34.94-41.31,52.42-7.38,1.49-18.65,2.88-32.16,1.09-13.77-1.82-24.44-6.23-31.22-9.66h0Z"/>
    <path class="cls-1" d="M177.38,57.84c.81,3.94,1.64,10.69-.3,18.63-.65,2.64-1.98,8.71-6.68,14.48-3.68,4.52-6.31,5.83-12.71,10.95-3.69,2.96-8.78,7.36-14.39,13.45,5.37,2.73,11.72,5.35,19.01,7.31,24.71,6.66,46.33,2.08,58.17-1.52,1.76-1.88,3.51-3.77,5.27-5.65-10.11-7.02-23.39-18.12-35.16-34.72-5.76-8.12-10.02-15.98-13.2-22.94h0Z"/>
    <path class="cls-4" d="M133.96,10.02c-2.01,2.77-4.12,6.1-6.08,10.03-3.18,6.36-4.94,12.28-5.96,17,.4-1.39,2.52-8.25,8.95-11.24,7.33-3.4,17.36-.41,23.36,7.98-2.84-4.92-6.8-10.68-12.3-16.44-2.71-2.84-5.41-5.27-7.96-7.34h0Z"/>
    <path class="cls-4" d="M271.03,28.74c1.24,3.16,2.45,6.96,3.3,11.33,1.4,7.2,1.37,13.5.95,18.26.02-1.25.02-8.97-5.73-13.79-6.19-5.19-16.55-4.94-24.34,1.52,3.76-3.78,8.85-8.14,15.45-12.1,3.67-2.2,7.18-3.9,10.36-5.22h.01Z"/>
    <path class="cls-14" d="M209.91,212.12c10.33-13.11,20.67-26.23,31-39.34-8.78,7.87-26.48,21.54-52.65,27.97-16.97,4.17-31.69,3.86-41.73,2.8,7.2,3.63,18.74,8.33,33.62,9.93,12.25,1.32,22.57.08,29.76-1.36Z"/>
    <path class="cls-10" d="M15,211.51c3.93,0,7.12-2.55,9.19-5.86,2.09-3.35,3.31-7.83,3.31-12.64s-1.21-9.29-3.31-12.64c-2.07-3.32-5.26-5.86-9.19-5.86s-7.12,2.55-9.19,5.86c-2.09,3.35-3.31,7.83-3.31,12.64s1.21,9.29,3.31,12.64c2.07,3.32,5.26,5.86,9.19,5.86Z"/>
    <path class="cls-10" d="M296.42,214.86c3.87-.71,6.54-3.79,7.98-7.43,1.45-3.68,1.83-8.3.96-13.03s-2.88-8.91-5.55-11.83c-2.64-2.88-6.23-4.81-10.1-4.1s-6.54,3.79-7.98,7.43c-1.45,3.68-1.83,8.3-.96,13.03s2.88,8.91,5.55,11.83c2.64,2.89,6.23,4.81,10.1,4.1Z"/>
    <path class="cls-10" d="M55,211.51c3.93,0,7.12-2.55,9.19-5.86,2.09-3.35,3.31-7.83,3.31-12.64s-1.21-9.29-3.31-12.64c-2.07-3.32-5.26-5.86-9.19-5.86s-7.12,2.55-9.19,5.86c-2.09,3.35-3.31,7.83-3.31,12.64s1.21,9.29,3.31,12.64c2.07,3.32,5.26,5.86,9.19,5.86Z"/>
    <path class="cls-10" d="M335.75,207.6c3.87-.71,6.54-3.79,7.98-7.43,1.45-3.68,1.84-8.3.96-13.03-.87-4.73-2.88-8.91-5.55-11.83-2.64-2.89-6.23-4.81-10.1-4.1-3.87.71-6.54,3.79-7.98,7.43-1.45,3.68-1.83,8.3-.96,13.03s2.88,8.91,5.55,11.83c2.64,2.89,6.23,4.81,10.1,4.1Z"/>
    <path class="cls-2" d="M35,214.51c3.93,0,7.12-2.55,9.19-5.86,2.09-3.35,3.31-7.83,3.31-12.64s-1.21-9.29-3.31-12.64c-2.07-3.32-5.26-5.86-9.19-5.86s-7.12,2.55-9.19,5.86c-2.09,3.35-3.31,7.83-3.31,12.64s1.21,9.29,3.31,12.64c2.07,3.32,5.26,5.86,9.19,5.86Z"/>
    <path class="cls-2" d="M316.63,214.18c3.87-.71,6.54-3.79,7.98-7.43,1.45-3.68,1.83-8.3.96-13.03s-2.88-8.91-5.55-11.83c-2.64-2.89-6.23-4.81-10.1-4.1s-6.54,3.79-7.98,7.43c-1.45,3.68-1.83,8.3-.96,13.03s2.88,8.91,5.55,11.83c2.64,2.89,6.23,4.81,10.1,4.1Z"/>
  </g>
</svg>